<?xml version="1.0"?>
<svg xmlns="http://www.w3.org/2000/svg" viewBox="0 0 50 50" enable-background="new 0 0 50 50">
    <path style="text-indent:0;text-align:start;line-height:normal;text-transform:none;block-progression:tb;-inkscape-font-specification:Bitstream Vera Sans" d="M 7.8125 8 A 1.0001 1.0001 0 0 0 7 9 L 7 13 A 1.0001 1.0001 0 0 0 8 14 L 8.1875 14 L 11.125 29.75 A 1.0001 1.0001 0 0 0 11.25 30.34375 L 12.59375 37.53125 A 1.0001 1.0001 0 0 0 12.6875 38 L 13.40625 41.875 A 1.0001 1.0001 0 0 0 13.40625 41.90625 C 13.896596 44.235393 15.921272 46 18.3125 46 L 31.6875 46 C 34.068877 46 36.202105 44.259821 36.59375 41.875 C 36.59535 41.8651 36.59215 41.85364 36.59375 41.84375 L 37.3125 38 A 1.0001 1.0001 0 0 0 37.3125 37.96875 L 37.34375 37.90625 A 1.0001 1.0001 0 0 0 37.40625 37.5 L 38.75 30.375 A 1.0001 1.0001 0 0 0 38.875 29.71875 L 41.8125 14 L 42 14 A 1.0001 1.0001 0 0 0 43 13 L 43 9 A 1.0001 1.0001 0 0 0 42 8 L 8 8 A 1.0001 1.0001 0 0 0 7.90625 8 A 1.0001 1.0001 0 0 0 7.8125 8 z M 9 10 L 41 10 L 41 12 L 32.21875 12 A 1.0001 1.0001 0 0 0 31.90625 11.96875 A 1.0001 1.0001 0 0 0 31.8125 12 L 21.21875 12 A 1.0001 1.0001 0 0 0 20.90625 11.96875 A 1.0001 1.0001 0 0 0 20.8125 12 L 9 12 L 9 10 z M 12.4375 14 L 15.5625 14 L 14 15.5625 L 12.4375 14 z M 18.4375 14 L 20.5625 14 L 23.5625 17 L 19.5 21.09375 L 15.4375 17 L 18.4375 14 z M 23.4375 14 L 26.5625 14 L 25 15.5625 L 23.4375 14 z M 29.4375 14 L 31.5625 14 L 34.5625 17 L 30.5 21.0625 L 26.4375 17 L 29.4375 14 z M 34.4375 14 L 37.5625 14 L 36 15.5625 L 34.4375 14 z M 10.34375 14.78125 L 12.5625 17 L 11.0625 18.53125 L 10.34375 14.78125 z M 39.65625 14.78125 L 38.96875 18.53125 L 37.4375 17 L 39.65625 14.78125 z M 14 18.4375 L 18.09375 22.5 L 14 26.59375 L 12.40625 25 A 1.0001 1.0001 0 0 0 12.25 24.875 L 11.5 20.90625 L 14 18.4375 z M 25 18.4375 L 29.09375 22.5 L 25 26.59375 L 20.90625 22.5 L 25 18.4375 z M 36 18.4375 L 38.5 20.90625 L 37.78125 24.84375 A 1.0001 1.0001 0 0 0 37.59375 25 L 36 26.59375 L 31.90625 22.5 L 36 18.4375 z M 19.5 23.90625 L 23.59375 28 L 19.5 32.09375 L 15.40625 28 L 19.5 23.90625 z M 30.5 23.90625 L 34.59375 28 L 30.5 32.09375 L 26.40625 28 L 30.5 23.90625 z M 14 29.40625 L 18.09375 33.5 L 14.53125 37.0625 L 13.25 30.15625 L 14 29.40625 z M 25 29.40625 L 29.09375 33.5 L 25 37.59375 L 20.90625 33.5 L 25 29.40625 z M 36 29.40625 L 36.78125 30.1875 L 35.46875 37.0625 L 31.90625 33.5 L 36 29.40625 z M 19.5 34.90625 L 23.59375 39 L 20 42.59375 L 15.90625 38.5 L 19.5 34.90625 z M 30.5 34.90625 L 34.09375 38.5 L 30 42.59375 L 26.40625 39 L 30.5 34.90625 z M 25 40.40625 L 28.59375 44 L 21.40625 44 L 25 40.40625 z M 15.21875 40.625 L 18.59375 44 L 18.3125 44 C 16.903728 44 15.684654 42.970857 15.375 41.5 L 15.21875 40.625 z M 34.78125 40.625 L 34.625 41.5 A 1.0001 1.0001 0 0 0 34.625 41.53125 C 34.403965 42.931139 33.096272 44 31.6875 44 L 31.40625 44 L 34.78125 40.625 z"/>
</svg>
